<?xml version="1.0" encoding="UTF-8" standalone="no"?>
<!-- Created with Inkscape (http://www.inkscape.org/) -->

<svg
   width="280mm"
   height="280mm"
   viewBox="0 0 280 280"
   version="1.1"
   id="svg267"
   inkscape:version="1.2.1 (9c6d41e410, 2022-07-14)"
   sodipodi:docname="logoipfabric.svg"
   xmlns:inkscape="http://www.inkscape.org/namespaces/inkscape"
   xmlns:sodipodi="http://sodipodi.sourceforge.net/DTD/sodipodi-0.dtd"
   xmlns="http://www.w3.org/2000/svg"
   xmlns:svg="http://www.w3.org/2000/svg">
  <sodipodi:namedview
     id="namedview269"
     pagecolor="#ffffff"
     bordercolor="#666666"
     borderopacity="1.0"
     inkscape:showpageshadow="2"
     inkscape:pageopacity="0.0"
     inkscape:pagecheckerboard="0"
     inkscape:deskcolor="#d1d1d1"
     inkscape:document-units="mm"
     showgrid="false"
     inkscape:zoom="0.70710678"
     inkscape:cx="600.33365"
     inkscape:cy="576.99913"
     inkscape:window-width="1920"
     inkscape:window-height="1017"
     inkscape:window-x="-8"
     inkscape:window-y="-8"
     inkscape:window-maximized="1"
     inkscape:current-layer="g9099" />
  <defs
     id="defs264" />
  <g
     id="g9099">
    <g
       id="logo_ipfabric"
       transform="matrix(16.918242,0,0,16.918242,-2.6217396,-0.08369229)"
       sodipodi:insensitive="true">
      <path
         id="Tracé_47"
         data-name="Tracé 47"
         d="M 29.78,26.82 A 1.33,1.33 0 1 1 29.389,25.878 1.335,1.335 0 0 1 29.78,26.82"
         transform="translate(-17.215,-15.765)"
         fill="#546582"
         fill-rule="evenodd"
         style="display:inline"
         inkscape:label="CircleBlue" />
      <path
         id="Tracé_49"
         data-name="Tracé 49"
         d="M 15.945,15.73 14.5,14.295 A 3.08,3.08 0 1 1 14.46,8.785 L 17.2,6.05 H 7.63 V 22.6 h 4.225 l 4.1,-4.1 a 3.04,3.04 0 0 1 0,-2.765"
         fill="#546582"
         transform="translate(-7.475,-6.045)"
         inkscape:label="Shapeblue"
         style="display:inline" />
      <path
         id="Tracé_48"
         data-name="Tracé 48"
         d="m 18.59,15.72 a 1.335,1.335 0 1 1 -1.33,-1.33 1.335,1.335 0 0 1 1.33,1.33"
         transform="translate(-11.62,-10.215)"
         fill="#4e4e50"
         fill-rule="evenodd"
         style="display:inline"
         inkscape:label="CircleGray" />
      <path
         id="Tracé_50"
         data-name="Tracé 50"
         d="m 26.825,6.05 -4.085,4.06 a 3.1,3.1 0 0 1 0.355,1.44 3.04,3.04 0 0 1 -0.335,1.395 l 1.425,1.425 a 3.035,3.035 0 0 1 1.425,-0.35 3.08,3.08 0 1 1 -1.37,5.825 L 21.48,22.6 H 31.1 V 6.05 Z"
         transform="translate(-14.4,-6.045)"
         fill="#4e4e50"
         style="display:inline"
         inkscape:label="ShapeGrey" />
      <path
         id="path9488"
         d="m 26.939987,15.770008 -2.739991,2.734981 c -2.055267,-1.008599 -4.453409,0.498061 -4.436784,2.787369 0.01663,2.289308 2.436396,3.76098 4.476798,2.722638 l 1.444983,1.434995 0.01002,0.005 c -0.4434,0.868341 -0.4434,1.896665 0,2.765006 l -4.099998,4.099998 h 2.699977 l 2.759997,-2.755018 c 1.779875,0.905607 3.937683,-0.09597 4.3949,-2.039934 0.457217,-1.943964 -1.027932,-3.802358 -3.024874,-3.785051 -0.49648,-0.0016 -0.985783,0.118542 -1.425006,0.350012 l -1.425007,-1.425006 c 0.221359,-0.431619 0.336219,-0.909942 0.334985,-1.395012 -7.4e-5,-0.501654 -0.121891,-0.995796 -0.354992,-1.440004 l 4.085001,-4.059984 z m -4.085,4.170007 c 0.733397,0.0027 1.32726,0.596584 1.330012,1.329981 0.0045,1.191844 -1.436246,1.791612 -2.278918,0.948959 -0.842672,-0.842652 -0.242938,-2.283385 0.948906,-2.27894 z m 5.589698,5.549898 c 0.353867,-0.0014 0.69371,0.138239 0.944323,0.388072 0.249872,0.249876 0.39048,0.588627 0.391004,0.942002 -7.5e-5,1.183681 -1.430013,1.777409 -2.26855,0.942172 -0.838536,-0.835238 -0.250448,-2.267505 0.933223,-2.272246 z"
         transform="translate(-17.215,-15.765)"
         sodipodi:nodetypes="ccscccccccscccccccsssscccsc"
         style="display:inline;fill:#ff9955;stroke:none;stroke-width:0.53197;stroke-dasharray:none;stroke-opacity:0.191542"
         inkscape:label="center" />
    </g>
    <g
       id="g9109"
       transform="matrix(16.918242,0,0,16.918242,-2.6217396,-0.08369229)">
      <path
         id="path9101"
         d="m 26.939987,15.770008 -2.739991,2.734981 c -2.055267,-1.008599 -4.453409,0.498061 -4.436784,2.787369 0.01663,2.289308 2.436396,3.76098 4.476798,2.722638 l 1.444983,1.434995 0.01002,0.005 c -0.4434,0.868341 -0.4434,1.896665 0,2.765006 l -4.099998,4.099998 h 2.699977 l 2.759997,-2.755018 c 1.779875,0.905607 3.937683,-0.09597 4.3949,-2.039934 0.457217,-1.943964 -1.027932,-3.802358 -3.024874,-3.785051 -0.49648,-0.0016 -0.985783,0.118542 -1.425006,0.350012 l -1.425007,-1.425006 c 0.221359,-0.431619 0.336219,-0.909942 0.334985,-1.395012 -7.4e-5,-0.501654 -0.121891,-0.995796 -0.354992,-1.440004 l 4.085001,-4.059984 z m -4.085,4.170007 c 0.733397,0.0027 1.32726,0.596584 1.330012,1.329981 0.0045,1.191844 -1.436246,1.791612 -2.278918,0.948959 -0.842672,-0.842652 -0.242938,-2.283385 0.948906,-2.27894 z m 5.589698,5.549898 c 0.353867,-0.0014 0.69371,0.138239 0.944323,0.388072 0.249872,0.249876 0.39048,0.588627 0.391004,0.942002 -7.5e-5,1.183681 -1.430013,1.777409 -2.26855,0.942172 -0.838536,-0.835238 -0.250448,-2.267505 0.933223,-2.272246 z"
         transform="translate(-17.215,-15.765)"
         sodipodi:nodetypes="ccscccccccscccccccsssscccsc"
         style="display:none;fill:#806600;fill-opacity:1" />
    </g>
    <path
       style="display:inline;fill:none;fill-opacity:1;stroke:#000000;stroke-width:7.55906;stroke-linecap:round;stroke-linejoin:round;stroke-dasharray:none;stroke-opacity:1;paint-order:fill markers stroke"
       d="m 681.49625,14.54817 c -21.4629,0.516449 -43.31376,-0.921003 -64.5373,0.801019 -59.3463,58.506823 -118.0543,117.886551 -178.09423,175.555821 -27.07526,-12.13415 -55.82837,-23.44351 -86.08725,-21.43458 -59.88083,-3.15009 -118.44933,29.18637 -152.7655,77.45018 -21.79947,30.8205 -33.89647,68.63367 -32.15145,106.49744 -2.23122,62.18308 34.37111,122.04473 86.68687,154.14928 28.519,17.48065 61.76338,27.61772 95.37379,26.38943 31.1889,1.52718 61.66675,-7.78209 89.02225,-22.21453 7.76527,-2.86991 12.74501,10.48828 19.3469,14.39605 28.86295,27.86782 55.87645,57.85629 86.71498,83.57007 5.20743,1.6165 7.4311,4.17292 3.41124,8.90788 -23.87593,43.89088 -30.64733,97.45147 -14.15043,145.04527 3.86553,12.09922 9.37871,23.56387 14.78572,35.02665 -79.97444,80.34621 -160.77398,159.89896 -239.93293,241.04055 -1.46015,6.8717 8.96332,3.4229 12.67544,4.5796 38.5442,0.429 77.37638,1.0701 115.74468,-0.074 60.02405,-59.36594 119.57838,-119.4345 179.41992,-179.07238 30.02951,15.96299 63.73245,25.89049 97.98278,23.93091 68.88339,-1.5958 134.39464,-45.9102 161.36166,-109.33972 28.55404,-64.49835 15.80709,-145.56031 -33.22556,-196.77153 -34.85142,-38.08338 -86.41312,-61.44901 -138.37411,-58.58436 -29.66842,-0.89081 -58.72051,7.51794 -84.81339,21.26097 -8.66153,8.13095 -13.7002,-4.87714 -20.16298,-9.57576 -30.71356,-30.71357 -61.42713,-61.42715 -92.14069,-92.14071 14.23529,-28.03251 24.92161,-58.65025 23.90246,-90.4986 1.10194,-33.80418 -8.86936,-66.99559 -25.3802,-96.26874 79.9785,-79.47683 159.95707,-158.953605 239.93568,-238.430326 0.67071,-8.587271 -14.34442,-2.39993 -20.14975,-4.250377 -14.79954,0.01823 -29.59907,0.03646 -44.3986,0.05469 z M 351.41274,253.63865 c 33.23413,-2.0913 64.4282,18.1028 82.43593,44.97862 13.4983,22.28587 19.68446,49.07782 13.34104,74.66642 -6.8365,35.5659 -36.2324,64.782 -70.30733,74.24033 -45.7663,14.19756 -97.7847,-11.80543 -117.05102,-54.99137 -9.78188,-18.03678 -8.18512,-38.66316 -7.01859,-58.39708 7.62331,-44.27154 49.13217,-82.24543 94.86004,-80.48863 1.24664,-0.003 2.49328,-0.006 3.73993,-0.008 z m 356.57239,354.35993 c 47.01999,-1.14744 91.19521,36.0752 98.03374,82.68178 2.63697,21.81712 0.35239,44.86504 -11.45479,64.02376 -16.37169,31.63882 -52.36996,51.30192 -87.66999,50.19332 -31.30595,1.38406 -61.10323,-16.60991 -79.00813,-41.37128 -11.09891,-16.94649 -19.66449,-36.53864 -17.83811,-57.11539 -1.53202,-47.07587 36.00369,-91.08625 82.66267,-97.24381 5.22945,-0.77616 9.93989,-1.13868 15.27461,-1.16838 z"
       id="path9628"
       transform="scale(0.26458333)"
       inkscape:label="LightInnerFull"
       sodipodi:insensitive="true" />
    <path
       style="display:inline;fill:none;fill-opacity:1;stroke:#ff0000;stroke-width:3.77953;stroke-linecap:round;stroke-linejoin:round;stroke-dasharray:none;stroke-opacity:1;paint-order:fill markers stroke"
       d="m 681.49625,14.54817 c -21.4629,0.516449 -43.31376,-0.921003 -64.5373,0.801019 -59.3463,58.506823 -118.0543,117.886551 -178.09423,175.555821 -27.07526,-12.13415 -55.82837,-23.44351 -86.08725,-21.43458 -59.88083,-3.15009 -118.44933,29.18637 -152.7655,77.45018 -21.79947,30.8205 -33.89647,68.63367 -32.15145,106.49744 -2.23122,62.18308 34.37111,122.04473 86.68687,154.14928 28.519,17.48065 61.76338,27.61772 95.37379,26.38943 31.1889,1.52718 61.66675,-7.78209 89.02225,-22.21453 7.76527,-2.86991 12.74501,10.48828 19.3469,14.39605 28.86295,27.86782 55.87645,57.85629 86.71498,83.57007 5.20743,1.6165 7.4311,4.17292 3.41124,8.90788 -23.87593,43.89088 -30.64733,97.45147 -14.15043,145.04527 3.86553,12.09922 9.37871,23.56387 14.78572,35.02665 -79.97444,80.34621 -160.77398,159.89896 -239.93293,241.04055 -1.46015,6.8717 8.96332,3.4229 12.67544,4.5796 38.5442,0.429 77.37638,1.0701 115.74468,-0.074 60.02405,-59.36594 119.57838,-119.4345 179.41992,-179.07238 30.02951,15.96299 63.73245,25.89049 97.98278,23.93091 68.88339,-1.5958 134.39464,-45.9102 161.36166,-109.33972 28.55404,-64.49835 15.80709,-145.56031 -33.22556,-196.77153 -34.85142,-38.08338 -86.41312,-61.44901 -138.37411,-58.58436 -29.66842,-0.89081 -58.72051,7.51794 -84.81339,21.26097 -8.66153,8.13095 -13.7002,-4.87714 -20.16298,-9.57576 -30.71356,-30.71357 -61.42713,-61.42715 -92.14069,-92.14071 14.23529,-28.03251 24.92161,-58.65025 23.90246,-90.4986 1.10194,-33.80418 -8.86936,-66.99559 -25.3802,-96.26874 79.9785,-79.47683 159.95707,-158.953605 239.93568,-238.430326 0.67071,-8.587271 -14.34442,-2.39993 -20.14975,-4.250377 l -44.3986,0.05469 z"
       id="path9839"
       transform="scale(0.26458333)"
       inkscape:label="LightInnerout"
       sodipodi:nodetypes="ccccccccccccccccccccccccccccccc" />
    <path
       style="display:inline;fill:none;fill-opacity:1;stroke:#00ccff;stroke-width:3.77953;stroke-linecap:round;stroke-linejoin:round;stroke-dasharray:none;stroke-opacity:1;paint-order:fill markers stroke"
       d="m 351.41274,253.63865 c 33.23413,-2.0913 64.4282,18.1028 82.43593,44.97862 13.4983,22.28587 19.68446,49.07782 13.34104,74.66642 -6.8365,35.5659 -36.2324,64.782 -70.30733,74.24033 -45.7663,14.19756 -97.7847,-11.80543 -117.05102,-54.99137 -9.78188,-18.03678 -8.18512,-38.66316 -7.01859,-58.39708 7.62331,-44.27154 49.13217,-82.24543 94.86004,-80.48863 1.24664,-0.003 2.49328,-0.006 3.73993,-0.008 z m 356.57239,354.35993 c 47.01999,-1.14744 91.19521,36.0752 98.03374,82.68178 2.63697,21.81712 0.35239,44.86504 -11.45479,64.02376 -16.37169,31.63882 -52.36996,51.30192 -87.66999,50.19332 -31.30595,1.38406 -61.10323,-16.60991 -79.00813,-41.37128 -11.09891,-16.94649 -19.66449,-36.53864 -17.83811,-57.11539 -1.53202,-47.07587 36.00369,-91.08625 82.66267,-97.24381 5.22945,-0.77616 9.93989,-1.13868 15.27461,-1.16838 z"
       id="path9841"
       transform="scale(0.26458333)"
       inkscape:label="LightInnercircles"
       sodipodi:insensitive="true"
       sodipodi:nodetypes="ccccccccccccccccc" />
  </g>
</svg>
