<?xml version="1.0" encoding="UTF-8" standalone="no"?>
<!-- Created with Inkscape (http://www.inkscape.org/) -->

<svg
   width="280mm"
   height="280mm"
   viewBox="0 0 280 280"
   version="1.1"
   id="svg267"
   inkscape:version="1.2.1 (9c6d41e410, 2022-07-14)"
   sodipodi:docname="logo.svg"
   xmlns:inkscape="http://www.inkscape.org/namespaces/inkscape"
   xmlns:sodipodi="http://sodipodi.sourceforge.net/DTD/sodipodi-0.dtd"
   xmlns="http://www.w3.org/2000/svg"
   xmlns:svg="http://www.w3.org/2000/svg">
  <sodipodi:namedview
     id="namedview269"
     pagecolor="#ffffff"
     bordercolor="#666666"
     borderopacity="1.0"
     inkscape:showpageshadow="2"
     inkscape:pageopacity="0.0"
     inkscape:pagecheckerboard="0"
     inkscape:deskcolor="#d1d1d1"
     inkscape:document-units="mm"
     showgrid="false"
     inkscape:zoom="0.5"
     inkscape:cx="942"
     inkscape:cy="664"
     inkscape:window-width="1920"
     inkscape:window-height="1017"
     inkscape:window-x="-8"
     inkscape:window-y="-8"
     inkscape:window-maximized="1"
     inkscape:current-layer="svg267" />
  <defs
     id="defs264">
    <inkscape:path-effect
       effect="fillet_chamfer"
       id="path-effect10285"
       is_visible="true"
       lpeversion="1"
       nodesatellites_param="F,0,0,1,0,0,0,1 @ F,0,0,1,0,0,0,1 @ F,0,0,1,0,21.166667,0,1 @ F,0,0,1,0,0,0,1 @ F,0,0,1,0,0,0,1 @ F,0,0,1,0,21.166667,0,1 @ F,0,0,1,0,21.166667,0,1 @ F,0,0,1,0,1.0583338,0,1 @ F,0,0,1,0,0,0,1 @ F,0,0,1,0,0,0,1"
       unit="px"
       method="auto"
       mode="F"
       radius="80"
       chamfer_steps="1"
       flexible="false"
       use_knot_distance="true"
       apply_no_radius="true"
       apply_with_radius="true"
       only_selected="false"
       hide_knots="false" />
    <inkscape:path-effect
       effect="fillet_chamfer"
       id="path-effect10282"
       is_visible="true"
       lpeversion="1"
       nodesatellites_param="F,0,0,1,0,0,0,1 @ F,0,0,1,0,0,0,1 @ F,0,0,1,0,25.337354,0,1 @ F,0,0,1,0,0,0,1 @ F,0,0,1,0,0,0,1 @ F,0,0,1,0,21.166667,0,1 @ F,0,0,1,0,21.166667,0,1 @ F,0,0,1,0,0,0,1 @ F,0,0,1,0,0,0,1 @ F,0,0,1,0,21.166667,0,1 @ F,0,0,1,0,21.166667,0,1"
       unit="px"
       method="bezier"
       mode="F"
       radius="80"
       chamfer_steps="1"
       flexible="false"
       use_knot_distance="true"
       apply_no_radius="true"
       apply_with_radius="true"
       only_selected="false"
       hide_knots="false" />
    <inkscape:path-effect
       effect="fillet_chamfer"
       id="path-effect10276"
       is_visible="true"
       lpeversion="1"
       nodesatellites_param="F,0,0,1,0,0,0,1 @ F,0,0,1,0,0,0,1 @ F,0,0,1,0,0,0,1 @ F,0,0,1,0,0,0,1 @ F,0,0,1,0,0,0,1 @ F,0,0,1,0,0,0,1 @ F,0,0,1,0,0,0,1 @ F,0,0,1,0,0,0,1 @ F,0,0,1,0,0,0,1 @ F,0,0,1,0,0,0,1 @ F,0,0,1,0,0,0,1"
       unit="px"
       method="bezier"
       mode="F"
       radius="0"
       chamfer_steps="1"
       flexible="false"
       use_knot_distance="true"
       apply_no_radius="true"
       apply_with_radius="true"
       only_selected="false"
       hide_knots="false" />
    <inkscape:path-effect
       effect="bspline"
       id="path-effect10274"
       is_visible="true"
       lpeversion="1"
       weight="34.5333"
       steps="2"
       helper_size="0"
       apply_no_weight="true"
       apply_with_weight="true"
       only_selected="false" />
  </defs>
  <path
     id="Tracé_47"
     data-name="Tracé 47"
     d="m 209.95597,186.94747 a 22.501262,22.501262 0 1 1 -6.61504,-15.93698 22.585853,22.585853 0 0 1 6.61504,15.93698"
     fill="#546582"
     fill-rule="evenodd"
     style="display:inline;stroke-width:16.9182"
     inkscape:label="CircleBlue" />
  <path
     id="Tracé_49"
     data-name="Tracé 49"
     d="M 140.67577,163.76948 116.22891,139.4918 C 88.335079,153.68672 56.250506,140.15445 44.812472,114.00152 40.16036,103.36452 40.016154,83.50014 44.513345,72.796721 55.570478,46.480492 87.455204,32.483837 115.55218,46.272286 L 161.90816,8.941e-4 H 21.167253 A 21.166667,21.166667 135 0 0 5.8646e-4,21.167561 V 258.83113 A 21.166667,21.166667 45 0 0 21.167253,279.9978 h 49.254572 a 2.5550438,2.5550438 157.5 0 0 1.806689,-0.74836 l 68.616436,-68.61643 c -7.50151,-14.69077 -7.50151,-32.08817 0,-46.77894"
     fill="#546582"
     inkscape:label="Shapeblue"
     style="display:inline;stroke-width:16.9182"
     inkscape:path-effect="#path-effect10285"
     inkscape:original-d="M 140.67577,163.76948 116.22891,139.4918 A 52.108185,52.108185 0 1 1 115.55218,46.272286 L 161.90816,8.941e-4 H 5.8646e-4 V 279.9978 H 71.480159 l 69.364791,-69.36479 a 51.431456,51.431456 0 0 1 0,-46.77894" />
  <path
     id="Tracé_48"
     data-name="Tracé 48"
     d="M 115.29841,93.051234 A 22.585853,22.585853 0 1 1 92.797147,70.549972 22.585853,22.585853 0 0 1 115.29841,93.051234"
     fill="#4e4e50"
     fill-rule="evenodd"
     style="display:inline;stroke-width:16.9182"
     inkscape:label="CircleGray" />
  <path
     id="Tracé_50"
     data-name="Tracé 50"
     d="M 207.58742,8.941e-4 138.4764,68.688957 c 3.9437,7.515182 6.00467,15.875177 6.00598,24.362268 0.0208,8.206485 -1.92255,16.298795 -5.66761,23.600945 l 24.10849,24.1085 c 7.43088,-3.91598 15.70897,-5.9492 24.1085,-5.92139 33.78463,-0.29276 58.91068,31.14779 51.17556,64.03617 -7.73512,32.88838 -44.24115,49.83349 -74.35355,34.51259 L 117.15942,279.9978 H 279.91291 V 8.941e-4 Z"
     fill="#4e4e50"
     style="display:none;stroke-width:16.9182"
     inkscape:label="ShapeGrey"
     inkscape:path-effect="#path-effect10276"
     inkscape:original-d="M 207.58742,8.941e-4 138.4764,68.688957 a 52.44655,52.44655 0 0 1 6.00598,24.362268 51.431456,51.431456 0 0 1 -5.66761,23.600945 l 24.10849,24.1085 a 51.346864,51.346864 0 0 1 24.1085,-5.92139 52.108185,52.108185 0 1 1 -23.17799,98.54876 L 117.15942,279.9978 H 279.91291 V 8.941e-4 Z" />
  <path
     id="path10278"
     data-name="Tracé 50"
     d="M 207.58742,8.941e-4 138.4764,68.688957 c 6.43931,12.27093 6.4558,36.035323 0.33837,47.963213 l 24.10849,24.1085 c 1.1545,-0.6084 2.32944,-1.17136 3.52212,-1.68821 10.6504,-4.61533 30.51363,-4.70012 41.21758,-0.2052 16.25858,6.82747 28.09042,21.63275 31.16476,38.99662 2.02402,11.43163 -2.52327,30.76592 -9.43053,40.09697 -14.55505,19.66251 -42.00294,27.40437 -65.54342,15.42719 l -46.69435,46.60976 h 141.58682 c 11.69003,0 21.16667,-9.47664 21.16667,-21.16667 V 21.167561 c 0,-11.6900273 -9.47664,-21.1666669 -21.16667,-21.1666669 z"
     fill="#4e4e50"
     style="display:inline;stroke-width:16.9182"
     inkscape:label="ShapeGreycorner"
     inkscape:path-effect="#path-effect10282"
     inkscape:original-d="M 207.58742,8.941e-4 138.4764,68.688957 a 52.44655,52.44655 0 0 1 6.00598,24.362268 51.431456,51.431456 0 0 1 -5.66761,23.600945 l 24.10849,24.1085 a 51.346864,51.346864 0 0 1 24.1085,-5.92139 52.108185,52.108185 0 1 1 -23.17799,98.54876 L 117.15942,279.9978 H 279.91291 V 8.941e-4 Z" />
  <path
     id="path9488"
     d="M 161.90794,0.00103169 115.55211,46.272102 C 80.780604,29.20838 40.208258,54.698419 40.489523,93.429485 40.770874,132.16055 81.70906,157.05866 116.22908,139.49173 l 24.44657,24.2776 0.16952,0.0846 c -7.50155,14.6908 -7.50155,32.08824 0,46.77904 l -69.36476,69.36476 h 45.67886 l 46.6943,-46.61006 c 30.11236,15.32127 66.61868,-1.62365 74.35398,-34.5121 7.73531,-32.88845 -17.3908,-64.32921 -51.17555,-64.03641 -8.39957,-0.0271 -16.67771,2.00552 -24.10859,5.92159 l -24.10862,-24.1086 c 3.74501,-7.30223 5.68824,-15.39462 5.66736,-23.60115 -10e-4,-8.487103 -2.06218,-16.847117 -6.00584,-24.362336 L 207.58735,8.6250352e-4 Z M 92.796921,70.550219 c 12.407789,0.04568 22.454909,10.093153 22.501469,22.500941 0.0761,20.1639 -24.298762,30.31093 -38.55529,16.05472 C 62.486571,94.849687 72.633016,70.475018 92.796921,70.550219 Z m 94.567859,93.894521 c 5.98681,-0.0237 11.73636,2.33876 15.97629,6.56549 4.22739,4.22747 6.60623,9.95854 6.6151,15.93702 -10e-4,20.0258 -24.19331,30.07064 -38.37988,15.93989 -14.18655,-14.13075 -4.23714,-38.36219 15.78849,-38.4424 z"
     sodipodi:nodetypes="ccscccccccscccccccsssscccsc"
     style="display:inline;fill:#ff9955;stroke:none;stroke-width:9;stroke-dasharray:none;stroke-opacity:0.191542"
     inkscape:label="center" />
  <path
     style="display:inline;fill:none;fill-opacity:1;stroke:#000000;stroke-width:2;stroke-linecap:round;stroke-linejoin:round;stroke-dasharray:none;stroke-opacity:1;paint-order:fill markers stroke"
     d="M 180.31255,3.8492033 C 174.63382,3.9858471 168.85245,3.6055212 163.23705,4.0611395 147.53501,19.54107 132.00185,35.251956 116.11629,50.510283 108.95263,47.299789 101.34503,44.307521 93.339038,44.839051 77.495568,44.005589 61.99932,52.561278 52.919833,65.331077 c -5.767776,8.154591 -8.968441,18.159325 -8.506738,28.177448 -0.590343,16.452605 9.094023,32.291005 22.935901,40.785325 7.545652,4.62509 16.341561,7.30719 25.234315,6.98221 8.252059,0.40406 16.315999,-2.05901 23.553799,-5.8776 2.05457,-0.75933 3.37212,2.77503 5.11887,3.80896 7.63666,7.37336 14.78398,15.30781 22.94334,22.11125 1.3778,0.42769 1.96614,1.10408 0.90256,2.35687 -6.31718,11.6128 -8.10878,25.78404 -3.74397,38.37656 1.02275,3.20125 2.48145,6.23461 3.91205,9.26747 -21.1599,21.25827 -42.53811,42.3066 -63.482249,63.77531 -0.386332,1.81814 2.371545,0.90564 3.35371,1.21169 10.198152,0.1135 20.472499,0.28313 30.624109,-0.0196 15.88137,-15.70724 31.63845,-31.60038 47.47152,-47.37957 7.94531,4.22354 16.86255,6.85019 25.92461,6.33172 18.2254,-0.42222 35.55859,-12.14707 42.69361,-28.92947 7.55492,-17.06518 4.18229,-38.51283 -8.79093,-52.06246 -9.22111,-10.07623 -22.86347,-16.25839 -36.61148,-15.50045 -7.84977,-0.23569 -15.53647,1.98912 -22.44021,5.6253 -2.2917,2.15131 -3.62485,-1.29041 -5.33479,-2.53359 -8.1263,-8.12629 -16.2526,-16.2526 -24.37889,-24.37889 3.76642,-7.41694 6.59384,-15.51788 6.32419,-23.944422 0.29156,-8.944023 -2.34668,-17.725917 -6.71518,-25.471104 21.16098,-21.028244 42.32198,-42.056474 63.48298,-63.0846898 0.17746,-2.2720487 -3.79529,-0.6349814 -5.33128,-1.1245789 -3.91571,0.00482 -7.83142,0.00965 -11.74713,0.01447 z M 92.977953,67.108559 c 8.793197,-0.553323 17.046627,4.789699 21.811177,11.900593 3.57142,5.896469 5.20818,12.985173 3.52981,19.75549 -1.80882,9.410148 -9.58649,17.140238 -18.602145,19.642758 -12.109,3.75643 -25.872201,-3.12352 -30.969749,-14.5498 -2.588122,-4.772236 -2.165646,-10.229632 -1.857001,-15.450898 2.017,-11.713512 12.999553,-21.76077 25.098385,-21.29595 0.32984,-7.94e-4 0.65968,-0.0016 0.989523,-0.0021 z m 94.343107,93.757731 c 12.44071,-0.30359 24.12874,9.5449 25.9381,21.87622 0.69769,5.77245 0.0932,11.87054 -3.03075,16.93962 -4.33168,8.3711 -13.85622,13.57363 -23.19602,13.28031 -8.28303,0.3662 -16.16689,-4.3947 -20.90423,-10.94615 -2.93659,-4.48375 -5.2029,-9.66751 -4.71967,-15.11178 -0.40535,-12.45549 9.52598,-24.0999 21.87117,-25.72909 1.38362,-0.20536 2.62993,-0.30127 4.0414,-0.30913 z"
     id="path9628"
     inkscape:label="LightInnerFull"
     sodipodi:insensitive="true" />
  <path
     style="display:inline;fill:none;fill-opacity:1;stroke:#ff0000;stroke-width:1;stroke-linecap:round;stroke-linejoin:round;stroke-dasharray:none;stroke-opacity:1;paint-order:fill markers stroke"
     d="M 180.31255,3.8492033 C 174.63382,3.9858471 168.85245,3.6055212 163.23705,4.0611395 147.53501,19.54107 132.00185,35.251956 116.11629,50.510283 108.95263,47.299789 101.34503,44.307521 93.339038,44.839051 77.495568,44.005589 61.99932,52.561278 52.919833,65.331077 c -5.767776,8.154591 -8.968441,18.159325 -8.506738,28.177448 -0.590343,16.452605 9.094023,32.291005 22.935901,40.785325 7.545652,4.62509 16.341561,7.30719 25.234315,6.98221 8.252059,0.40406 16.315999,-2.05901 23.553799,-5.8776 2.05457,-0.75933 3.37212,2.77503 5.11887,3.80896 7.63666,7.37336 14.78398,15.30781 22.94334,22.11125 1.3778,0.42769 1.96614,1.10408 0.90256,2.35687 -6.31718,11.6128 -8.10878,25.78404 -3.74397,38.37656 1.02275,3.20125 2.48145,6.23461 3.91205,9.26747 -21.1599,21.25827 -42.53811,42.3066 -63.482249,63.77531 -0.386332,1.81814 2.371545,0.90564 3.35371,1.21169 10.198152,0.1135 20.472499,0.28313 30.624109,-0.0196 15.88137,-15.70724 31.63845,-31.60038 47.47152,-47.37957 7.94531,4.22354 16.86255,6.85019 25.92461,6.33172 18.2254,-0.42222 35.55859,-12.14707 42.69361,-28.92947 7.55492,-17.06518 4.18229,-38.51283 -8.79093,-52.06246 -9.22111,-10.07623 -22.86347,-16.25839 -36.61148,-15.50045 -7.84977,-0.23569 -15.53647,1.98912 -22.44021,5.6253 -2.2917,2.15131 -3.62485,-1.29041 -5.33479,-2.53359 -8.1263,-8.12629 -16.2526,-16.2526 -24.37889,-24.37889 3.76642,-7.41694 6.59384,-15.51788 6.32419,-23.944422 0.29156,-8.944023 -2.34668,-17.725917 -6.71518,-25.471104 21.16098,-21.028244 42.32198,-42.056474 63.48298,-63.0846898 0.17746,-2.2720487 -3.79529,-0.6349814 -5.33128,-1.1245789 l -11.74713,0.01447 z"
     id="path9839"
     inkscape:label="LightInnerout"
     sodipodi:nodetypes="ccccccccccccccccccccccccccccccc" />
  <path
     style="display:inline;fill:none;fill-opacity:1;stroke:#00ccff;stroke-width:1;stroke-linecap:round;stroke-linejoin:round;stroke-dasharray:none;stroke-opacity:1;paint-order:fill markers stroke"
     d="m 92.977953,67.108559 c 8.793197,-0.553323 17.046627,4.789699 21.811177,11.900593 3.57142,5.896469 5.20818,12.985173 3.52981,19.75549 -1.80882,9.410148 -9.58649,17.140238 -18.602145,19.642758 -12.109,3.75643 -25.872201,-3.12352 -30.969749,-14.5498 -2.588122,-4.772236 -2.165646,-10.229632 -1.857001,-15.450898 2.017,-11.713512 12.999553,-21.76077 25.098385,-21.29595 0.32984,-7.94e-4 0.65968,-0.0016 0.989523,-0.0021 z m 94.343107,93.757731 c 12.44071,-0.30359 24.12874,9.5449 25.9381,21.87622 0.69769,5.77245 0.0932,11.87054 -3.03075,16.93962 -4.33168,8.3711 -13.85622,13.57363 -23.19602,13.28031 -8.28303,0.3662 -16.16689,-4.3947 -20.90423,-10.94615 -2.93659,-4.48375 -5.2029,-9.66751 -4.71967,-15.11178 -0.40535,-12.45549 9.52598,-24.0999 21.87117,-25.72909 1.38362,-0.20536 2.62993,-0.30127 4.0414,-0.30913 z"
     id="path9841"
     inkscape:label="LightInnercircles"
     sodipodi:insensitive="true"
     sodipodi:nodetypes="ccccccccccccccccc" />
</svg>
