<?xml version="1.0" encoding="UTF-8" standalone="no"?>
<!-- Created with Inkscape (http://www.inkscape.org/) -->

<svg
   width="831.49603"
   height="831.49603"
   viewBox="0 0 219.99999 219.99999"
   version="1.1"
   id="svg267"
   inkscape:version="1.2.1 (9c6d41e410, 2022-07-14)"
   sodipodi:docname="logoipfabricDecal.svg"
   xmlns:inkscape="http://www.inkscape.org/namespaces/inkscape"
   xmlns:sodipodi="http://sodipodi.sourceforge.net/DTD/sodipodi-0.dtd"
   xmlns="http://www.w3.org/2000/svg"
   xmlns:svg="http://www.w3.org/2000/svg">
  <sodipodi:namedview
     id="namedview269"
     pagecolor="#ffffff"
     bordercolor="#666666"
     borderopacity="1.0"
     inkscape:showpageshadow="2"
     inkscape:pageopacity="0.0"
     inkscape:pagecheckerboard="0"
     inkscape:deskcolor="#d1d1d1"
     inkscape:document-units="mm"
     showgrid="false"
     inkscape:zoom="0.6951326"
     inkscape:cx="330.87212"
     inkscape:cy="312.17066"
     inkscape:window-width="1920"
     inkscape:window-height="1017"
     inkscape:window-x="-8"
     inkscape:window-y="-8"
     inkscape:window-maximized="1"
     inkscape:current-layer="svg267" />
  <defs
     id="defs264">
    <inkscape:path-effect
       effect="fillet_chamfer"
       id="path-effect10285"
       is_visible="true"
       lpeversion="1"
       nodesatellites_param="F,0,0,1,0,0,0,1 @ F,0,0,1,0,0,0,1 @ F,0,0,1,0,21.166667,0,1 @ F,0,0,1,0,0,0,1 @ F,0,0,1,0,0,0,1 @ F,0,0,1,0,21.166667,0,1 @ F,0,0,1,0,21.166667,0,1 @ F,0,0,1,0,1.0583338,0,1 @ F,0,0,1,0,0,0,1 @ F,0,0,1,0,0,0,1"
       unit="px"
       method="auto"
       mode="F"
       radius="80"
       chamfer_steps="1"
       flexible="false"
       use_knot_distance="true"
       apply_no_radius="true"
       apply_with_radius="true"
       only_selected="false"
       hide_knots="false" />
    <inkscape:path-effect
       effect="fillet_chamfer"
       id="path-effect10282"
       is_visible="true"
       lpeversion="1"
       nodesatellites_param="F,0,0,1,0,0,0,1 @ F,0,0,1,0,0,0,1 @ F,0,0,1,0,25.337354,0,1 @ F,0,0,1,0,0,0,1 @ F,0,0,1,0,0,0,1 @ F,0,0,1,0,21.166667,0,1 @ F,0,0,1,0,21.166667,0,1 @ F,0,0,1,0,0,0,1 @ F,0,0,1,0,0,0,1 @ F,0,0,1,0,21.166667,0,1 @ F,0,0,1,0,21.166667,0,1"
       unit="px"
       method="bezier"
       mode="F"
       radius="80"
       chamfer_steps="1"
       flexible="false"
       use_knot_distance="true"
       apply_no_radius="true"
       apply_with_radius="true"
       only_selected="false"
       hide_knots="false" />
    <inkscape:path-effect
       effect="fillet_chamfer"
       id="path-effect10276"
       is_visible="true"
       lpeversion="1"
       nodesatellites_param="F,0,0,1,0,0,0,1 @ F,0,0,1,0,0,0,1 @ F,0,0,1,0,0,0,1 @ F,0,0,1,0,0,0,1 @ F,0,0,1,0,0,0,1 @ F,0,0,1,0,0,0,1 @ F,0,0,1,0,0,0,1 @ F,0,0,1,0,0,0,1 @ F,0,0,1,0,0,0,1 @ F,0,0,1,0,0,0,1 @ F,0,0,1,0,0,0,1"
       unit="px"
       method="bezier"
       mode="F"
       radius="0"
       chamfer_steps="1"
       flexible="false"
       use_knot_distance="true"
       apply_no_radius="true"
       apply_with_radius="true"
       only_selected="false"
       hide_knots="false" />
    <inkscape:path-effect
       effect="bspline"
       id="path-effect10274"
       is_visible="true"
       lpeversion="1"
       weight="34.5333"
       steps="2"
       helper_size="0"
       apply_no_weight="true"
       apply_with_weight="true"
       only_selected="false" />
  </defs>
  <path
     id="Tracé_48"
     data-name="Tracé 48"
     d="M 90.457633,73.003644 A 17.719758,17.719758 0 1 1 72.80424,55.350252 17.719758,17.719758 0 0 1 90.457633,73.003644"
     fill="#4e4e50"
     fill-rule="evenodd"
     style="display:inline;stroke-width:13.2732;fill:#ffe680"
     inkscape:label="CircleGray" />
  <path
     style="display:inline;fill:none;fill-opacity:1;stroke:#ff0000;stroke-width:0.784551;stroke-linecap:round;stroke-linejoin:round;stroke-dasharray:none;stroke-opacity:1;paint-order:fill markers stroke"
     d="M 141.46456,3.0200829 C 137.0093,3.127287 132.47352,2.8289018 128.06795,3.1863577 115.7489,15.331156 103.56234,27.657151 91.099302,39.628089 85.479044,37.109293 79.510492,34.761705 73.229382,35.178718 60.799368,34.524824 48.641768,41.2372 41.518445,51.255761 c -4.525115,6.397695 -7.036201,14.246921 -6.673971,22.106651 -0.463155,12.907911 7.134727,25.333947 17.994389,31.998178 5.91995,3.62862 12.820791,5.73286 19.797612,5.4779 6.474163,0.31701 12.800737,-1.6154 18.479162,-4.61128 1.611915,-0.59573 2.6456,2.17715 4.016015,2.98833 5.991348,5.78477 11.598788,12.00976 18.000228,17.3474 1.08095,0.33555 1.54253,0.86621 0.7081,1.84909 -4.95615,9.11084 -6.36175,20.2289 -2.93733,30.10838 0.8024,2.51154 1.94682,4.89137 3.0692,7.2708 -16.601026,16.6782 -33.373326,33.19169 -49.805076,50.035 -0.303097,1.42642 1.860598,0.71052 2.631157,0.95063 8.000973,0.0891 16.061724,0.22213 24.026182,-0.0154 12.459747,-12.32313 24.821987,-24.79211 37.243837,-37.1717 6.2335,3.31359 13.22954,5.37433 20.33919,4.96756 14.29876,-0.33125 27.89753,-9.53 33.49532,-22.69665 5.92722,-13.38851 3.28122,-30.21529 -6.89694,-40.84566 -7.23443,-7.90532 -17.93756,-12.75554 -28.72358,-12.1609 -6.15854,-0.18491 -12.18915,1.56057 -17.60549,4.41333 -1.79796,1.68782 -2.84388,-1.01239 -4.18542,-1.98773 -6.3755,-6.37549 -12.75099,-12.750994 -19.12648,-19.126484 2.95495,-5.81897 5.1732,-12.174572 4.96165,-18.785626 0.22874,-7.017044 -1.84109,-13.906889 -5.26841,-19.983385 16.60188,-16.497734 33.20376,-32.995458 49.80565,-49.4931697 0.13923,-1.7825385 -2.9776,-0.4981754 -4.18266,-0.8822897 l -9.21622,0.011352 z"
     id="path9839"
     inkscape:label="LightInnerout"
     sodipodi:nodetypes="ccccccccccccccccccccccccccccccc" />
  <path
     style="display:inline;fill:none;fill-opacity:1;stroke:#00ccff;stroke-width:0.784551;stroke-linecap:round;stroke-linejoin:round;stroke-dasharray:none;stroke-opacity:1;paint-order:fill markers stroke"
     d="m 72.946092,52.650287 c 6.898713,-0.43411 13.373952,3.757764 17.111985,9.336625 2.801962,4.626082 4.086084,10.187533 2.769317,15.499193 -1.419112,7.382743 -7.521092,13.447395 -14.594335,15.41075 -9.500131,2.947111 -20.298067,-2.450562 -24.297355,-11.415063 -2.030514,-3.744064 -1.69906,-8.025671 -1.456912,-12.122021 1.58244,-9.18985 10.198815,-17.072439 19.690968,-16.707763 0.258777,-6.23e-4 0.517553,-0.0013 0.776332,-0.0016 z m 74.016998,73.557743 c 9.76037,-0.23818 18.93023,7.48846 20.34977,17.16301 0.54737,4.52879 0.0731,9.31305 -2.37778,13.29 -3.39842,6.56756 -10.87091,10.64921 -18.19847,10.41909 -6.49846,0.2873 -12.68375,-3.44787 -16.40043,-8.58782 -2.30391,-3.51773 -4.08195,-7.58466 -3.70283,-11.85596 -0.31802,-9.77197 7.47362,-18.90761 17.15906,-20.18579 1.08552,-0.16112 2.06331,-0.23637 3.17068,-0.24253 z"
     id="path9841"
     inkscape:label="LightInnercircles"
     sodipodi:insensitive="true"
     sodipodi:nodetypes="ccccccccccccccccc" />
  <path
     style="display:inline;fill:none;fill-opacity:1;stroke:#000000;stroke-width:1.5691;stroke-linecap:round;stroke-linejoin:round;stroke-dasharray:none;stroke-opacity:1;paint-order:fill markers stroke"
     d="M 141.46456,3.0200829 C 137.0093,3.127287 132.47352,2.8289018 128.06795,3.1863577 115.7489,15.331156 103.56234,27.657151 91.099302,39.628089 85.479044,37.109293 79.510492,34.761705 73.229382,35.178718 60.799368,34.524824 48.641768,41.2372 41.518445,51.255761 c -4.525115,6.397695 -7.036201,14.246921 -6.673971,22.106651 -0.463155,12.907911 7.134727,25.333947 17.994389,31.998178 5.91995,3.62862 12.820791,5.73286 19.797612,5.4779 6.474163,0.31701 12.800737,-1.6154 18.479162,-4.61128 1.611915,-0.59573 2.6456,2.17715 4.016015,2.98833 5.991348,5.78477 11.598788,12.00976 18.000228,17.3474 1.08095,0.33555 1.54253,0.86621 0.7081,1.84909 -4.95615,9.11084 -6.36175,20.2289 -2.93733,30.10838 0.8024,2.51154 1.94682,4.89137 3.0692,7.2708 -16.601026,16.6782 -33.373326,33.19169 -49.805076,50.035 -0.303097,1.42642 1.860598,0.71052 2.631157,0.95063 8.000973,0.0891 16.061724,0.22213 24.026182,-0.0154 12.459747,-12.32313 24.821987,-24.79211 37.243837,-37.1717 6.2335,3.31359 13.22954,5.37433 20.33919,4.96756 14.29876,-0.33125 27.89753,-9.53 33.49532,-22.69665 5.92722,-13.38851 3.28122,-30.21529 -6.89694,-40.84566 -7.23443,-7.90532 -17.93756,-12.75554 -28.72358,-12.1609 -6.15854,-0.18491 -12.18915,1.56057 -17.60549,4.41333 -1.79796,1.68782 -2.84388,-1.01239 -4.18542,-1.98773 -6.3755,-6.37549 -12.75099,-12.750994 -19.12648,-19.126484 2.95495,-5.81897 5.1732,-12.174572 4.96165,-18.785626 0.22874,-7.017044 -1.84109,-13.906889 -5.26841,-19.983385 16.60188,-16.497734 33.20376,-32.995458 49.80565,-49.4931697 0.13923,-1.7825385 -2.9776,-0.4981754 -4.18266,-0.8822897 -3.07207,0.00378 -6.14415,0.00757 -9.21622,0.011352 z M 72.946092,52.650287 c 6.898713,-0.43411 13.373952,3.757764 17.111985,9.336625 2.801962,4.626082 4.086084,10.187533 2.769317,15.499193 -1.419112,7.382743 -7.521092,13.447395 -14.594335,15.41075 -9.500131,2.947111 -20.298067,-2.450562 -24.297355,-11.415063 -2.030514,-3.744064 -1.69906,-8.025671 -1.456912,-12.122021 1.58244,-9.18985 10.198815,-17.072439 19.690968,-16.707763 0.258777,-6.23e-4 0.517553,-0.0013 0.776332,-0.0016 z m 74.016998,73.557743 c 9.76037,-0.23818 18.93023,7.48846 20.34977,17.16301 0.54737,4.52879 0.0731,9.31305 -2.37778,13.29 -3.39842,6.56756 -10.87091,10.64921 -18.19847,10.41909 -6.49846,0.2873 -12.68375,-3.44787 -16.40043,-8.58782 -2.30391,-3.51773 -4.08195,-7.58466 -3.70283,-11.85596 -0.31802,-9.77197 7.47362,-18.90761 17.15906,-20.18579 1.08552,-0.16112 2.06331,-0.23637 3.17068,-0.24253 z"
     id="path400"
     inkscape:label="sapeInneroutlined"
     sodipodi:insensitive="true" />
  <path
     style="color:#000000;fill:#447a36;stroke-linecap:round;stroke-linejoin:round;-inkscape-stroke:none;paint-order:fill markers stroke"
     d="M 153.23242,2.1425781 C 144.69143,2.5809326 135.98461,1.7027983 127.51756,2.6269536 115.31467,14.65706 103.26114,26.839576 90.908203,38.716797 75.263116,30.30409 54.317095,34.180909 43.049254,48.023647 29.027001,63.692999 31.595144,90.56398 48.437976,103.21567 c 11.828809,9.79357 29.589983,11.21332 42.954602,3.74727 7.286437,5.9197 13.865222,14.73011 22.064452,20.60743 -6.7877,11.48999 -6.8877,26.38484 -0.41211,38.04102 -16.519409,16.7049 -33.464919,33.05487 -49.646483,50.05273 4.40786,4.62845 14.891215,0.66754 21.444467,1.99641 10.523335,1.44838 15.062597,-11.1654 22.676816,-16.41386 7.37519,-6.20958 14.09132,-16.44952 21.88505,-20.12894 18.10051,9.84984 42.8882,1.95929 52.04786,-16.46671 10.1475,-18.42492 1.94541,-43.96395 -17.28342,-52.75296 -11.39174,-5.60723 -25.62783,-5.21677 -36.65171,1.12538 -6.96078,-6.5248 -14.10695,-14.071896 -21.21093,-21.039045 6.51213,-11.78321 6.44926,-26.768043 -0.29687,-38.4375 16.4935,-16.568258 33.40577,-32.843274 49.63671,-49.5957031 0.11958,-1.2287209 -1.25027,-2.1871934 -2.41399,-1.8086138 z m 0.0879,1.5664063 c -2.47184,3.8845887 -9.21197,9.3531186 -13.31818,13.8441716 -11.83275,11.758312 -23.66557,23.51655 -35.49822,35.274969 2.50197,6.759233 5.81244,14.104176 5.05023,21.765883 2.03298,7.782106 -9.32512,16.353758 -1.15752,21.699278 6.86734,5.496714 12.15184,14.801124 19.92974,18.134904 8.00718,-4.9588 20.0328,-6.28873 29.64649,-3.31915 18.81326,5.28584 30.46291,26.71479 24.99389,45.3841 -4.96003,20.349 -29.12423,32.84765 -48.58546,25.06025 -9.53199,-7.21195 -14.73257,8.02478 -21.89771,12.50482 -7.3136,7.32116 -14.628944,14.6407 -21.985703,21.91854 -8.371145,0.23645 -17.719337,0.0939 -25.359375,-0.0137 16.332969,-16.86707 33.312676,-33.19513 49.605598,-50.03818 -6.10979,-11.37681 -6.77413,-25.74154 -0.21511,-37.13762 -1.50823,-6.12923 -12.15484,-11.60258 -16.622297,-17.94999 -4.465111,-8.69599 -11.371707,-2.94591 -18.220249,-1.30017 -18.101547,3.77244 -37.567556,-7.96428 -42.669819,-25.739533 -4.645554,-15.54396 1.675754,-33.729738 15.77734,-42.175313 11.204762,-7.403391 26.234699,-7.470669 37.985332,-1.27854 7.736979,-5.830415 14.360853,-13.759379 21.588803,-20.477561 7.82841,-5.789701 12.84551,-18.4870278 24.14301,-16.0488083 5.88875,-0.0565 11.52869,0.076433 16.80921,-0.1083503 z M 72.945312,51.865234 C 58.452433,50.71567 47.516966,67.109716 52.543189,80.319369 57.0394,93.642637 75.383127,99.086266 86.081595,89.720267 97.985857,81.096402 96.002209,61.021268 83.086538,54.386037 80.035744,52.617658 76.456384,51.653118 72.945312,51.865234 Z m 0.785157,0.785157 c 2.456491,1.274732 13.314764,3.423431 15.666015,9.761718 C 96.820599,73.039302 90.453186,89.122248 78,92.148437 65.364516,96.23649 50.920282,84.231759 53.171614,70.99242 53.692865,60.782654 63.605379,52.815014 73.501344,53.205045 l 0.169684,-0.254557 0.05944,-0.300097 z m 73.220701,72.773439 c -15.16672,-0.77477 -26.32092,17.55423 -18.9132,30.69811 5.54031,12.39344 23.30389,15.69233 33.16283,6.50578 10.72345,-8.88328 8.97876,-27.82302 -3.47675,-34.32959 -3.24086,-1.90892 -7.00245,-2.96998 -10.77288,-2.8743 z m 0.0156,1.56836 c 13.76615,-0.61312 24.26662,15.4498 18.08791,27.80558 -5.11452,12.61564 -23.98263,15.6549 -32.62187,5.03267 -10.04206,-10.10827 -4.19136,-29.38152 9.74753,-32.28542 1.57113,-0.34347 3.17636,-0.55404 4.78643,-0.55283 z"
     id="path9628" />
  <path
     id="Tracé_47"
     data-name="Tracé 47"
     d="m 164.72134,146.67005 a 17.653392,17.653392 0 1 1 -5.18984,-12.50338 17.719758,17.719758 0 0 1 5.18984,12.50338"
     fill="#546582"
     fill-rule="evenodd"
     style="display:inline;stroke-width:13.273;stroke-dasharray:none;fill:#000000"
     inkscape:label="CircleBlue" />
  <path
     id="path951"
     data-name="Tracé 48"
     d="M 87.983602,73.012893 A 15.24571,15.24571 0 1 1 72.794991,57.824283 15.24571,15.24571 0 0 1 87.983602,73.012893"
     fill="#4e4e50"
     fill-rule="evenodd"
     style="display:inline;fill:none;stroke-width:1;stroke:#000000;stroke-opacity:1;stroke-dasharray:6,6;stroke-dashoffset:0"
     inkscape:label="CircleGray" />
</svg>
